<?xml version="1.0" encoding="UTF-8" standalone="no"?>
<!-- Created with Inkscape (http://www.inkscape.org/) -->

<svg
   version="1.1"
   id="svg2"
   width="208.22731"
   height="154.84221"
   viewBox="0 0 208.22732 154.8422"
   sodipodi:docname="g14.svg"
   xmlns:inkscape="http://www.inkscape.org/namespaces/inkscape"
   xmlns:sodipodi="http://sodipodi.sourceforge.net/DTD/sodipodi-0.dtd"
   xmlns="http://www.w3.org/2000/svg"
   xmlns:svg="http://www.w3.org/2000/svg">
  <defs
     id="defs6">
    <clipPath
       clipPathUnits="userSpaceOnUse"
       id="clipPath7219">
      <rect
         style="fill:#000000;stroke-width:0.75"
         id="rect7221"
         width="171.51762"
         height="116.13166"
         x="8.1069565"
         y="-1191.9463"
         transform="scale(1,-1)" />
    </clipPath>
  </defs>
  <sodipodi:namedview
     id="namedview4"
     pagecolor="#ffffff"
     bordercolor="#000000"
     borderopacity="0.25"
     inkscape:showpageshadow="2"
     inkscape:pageopacity="0.0"
     inkscape:pagecheckerboard="0"
     inkscape:deskcolor="#d1d1d1"
     showgrid="false" />
  <g
     id="g10"
     inkscape:groupmode="layer"
     inkscape:label="Page 1"
     transform="matrix(1.3333333,0,0,-1.3333333,-31.272134,1589.2617)">
    <g
       id="g12"
       transform="translate(5.9839189,-0.15411003)">
      <g
         id="g14"
         clip-path="url(#clipPath7219)"
         inkscape:export-filename="g14.png"
         inkscape:export-xdpi="96"
         inkscape:export-ydpi="96">
        <g
           id="g1425">
          <g
             id="g20"
             transform="translate(43.1172,1084.2527)">
            <path
               d="M 0,0 C -0.198,0.276 -0.452,0.498 -0.763,0.666 -1.073,0.833 -1.448,0.918 -1.887,0.918 -2.111,0.918 -2.34,0.883 -2.572,0.814 -2.805,0.745 -3.016,0.64 -3.206,0.498 -3.395,0.355 -3.548,0.177 -3.665,-0.039 c -0.116,-0.215 -0.174,-0.469 -0.174,-0.762 0,-0.294 0.056,-0.535 0.167,-0.724 0.112,-0.19 0.26,-0.351 0.445,-0.485 0.185,-0.134 0.395,-0.243 0.632,-0.33 0.236,-0.086 0.483,-0.172 0.741,-0.258 0.318,-0.104 0.638,-0.215 0.96,-0.336 0.323,-0.121 0.613,-0.278 0.871,-0.472 0.257,-0.194 0.468,-0.44 0.631,-0.737 0.163,-0.297 0.245,-0.674 0.245,-1.131 0,-0.457 -0.087,-0.851 -0.261,-1.183 -0.174,-0.332 -0.401,-0.605 -0.678,-0.82 -0.279,-0.216 -0.597,-0.375 -0.955,-0.479 -0.357,-0.103 -0.717,-0.155 -1.079,-0.155 -0.276,0 -0.551,0.028 -0.827,0.084 -0.276,0.056 -0.539,0.14 -0.789,0.252 -0.249,0.112 -0.482,0.254 -0.698,0.427 -0.215,0.172 -0.405,0.37 -0.568,0.594 l 0.801,0.595 c 0.198,-0.328 0.476,-0.601 0.834,-0.821 0.357,-0.22 0.778,-0.329 1.26,-0.329 0.233,0 0.47,0.036 0.711,0.109 0.241,0.073 0.459,0.186 0.653,0.336 0.194,0.151 0.353,0.336 0.478,0.556 0.125,0.22 0.187,0.477 0.187,0.77 0,0.318 -0.062,0.583 -0.187,0.795 -0.125,0.21 -0.291,0.387 -0.498,0.529 -0.206,0.142 -0.444,0.261 -0.711,0.356 -0.267,0.095 -0.547,0.189 -0.84,0.284 -0.301,0.095 -0.599,0.203 -0.892,0.323 -0.293,0.121 -0.555,0.279 -0.788,0.472 -0.233,0.194 -0.42,0.433 -0.563,0.718 -0.141,0.284 -0.213,0.633 -0.213,1.047 0,0.439 0.088,0.818 0.265,1.137 0.177,0.319 0.407,0.582 0.692,0.789 0.284,0.206 0.599,0.357 0.943,0.452 0.345,0.095 0.685,0.143 1.021,0.143 0.621,0 1.151,-0.11 1.591,-0.33 0.439,-0.22 0.771,-0.481 0.995,-0.782 z"
               style="fill:#0074bc;fill-opacity:1;fill-rule:nonzero;stroke:none"
               id="path22" />
          </g>
          <g
             id="g24"
             transform="translate(87.2475,1077.7766)">
            <path
               d="M 0,0 H 0.026 L 2.999,7.95 H 3.995 L 0.492,-1.202 h -0.983 l -3.49,9.152 h 1.008 z"
               style="fill:#0074bc;fill-opacity:1;fill-rule:nonzero;stroke:none"
               id="path26" />
          </g>
          <path
             d="m 101.169,1076.574 h -0.931 v 9.152 h 0.931 z"
             style="fill:#0074bc;fill-opacity:1;fill-rule:nonzero;stroke:none"
             id="path28" />
          <g
             id="g30"
             transform="translate(119.0464,1078.0608)">
            <path
               d="m 0,0 c -0.155,-0.232 -0.342,-0.452 -0.562,-0.66 -0.22,-0.207 -0.475,-0.389 -0.763,-0.547 -0.289,-0.157 -0.608,-0.282 -0.957,-0.374 -0.348,-0.092 -0.73,-0.138 -1.143,-0.138 -0.69,0 -1.327,0.121 -1.913,0.362 -0.586,0.241 -1.091,0.575 -1.513,1.002 -0.422,0.426 -0.752,0.932 -0.989,1.519 -0.237,0.586 -0.355,1.228 -0.355,1.926 0,0.698 0.12,1.34 0.362,1.926 0.241,0.586 0.575,1.092 1.001,1.518 0.427,0.427 0.931,0.761 1.513,1.002 0.582,0.241 1.213,0.362 1.894,0.362 0.336,0 0.665,-0.035 0.988,-0.105 0.324,-0.07 0.627,-0.168 0.912,-0.295 0.284,-0.127 0.543,-0.28 0.775,-0.457 0.233,-0.178 0.427,-0.379 0.582,-0.604 L -0.943,5.869 C -1.039,6.015 -1.166,6.162 -1.325,6.308 -1.484,6.455 -1.672,6.584 -1.887,6.696 -2.103,6.808 -2.337,6.898 -2.592,6.968 -2.846,7.037 -3.12,7.071 -3.413,7.071 -4.007,7.071 -4.54,6.963 -5.009,6.749 -5.479,6.534 -5.877,6.244 -6.205,5.879 -6.532,5.514 -6.782,5.091 -6.954,4.61 -7.127,4.129 -7.213,3.622 -7.213,3.09 c 0,-0.533 0.088,-1.04 0.265,-1.521 0.177,-0.481 0.429,-0.904 0.757,-1.269 0.327,-0.365 0.725,-0.655 1.195,-0.87 0.47,-0.215 0.997,-0.322 1.583,-0.322 0.526,0 1.026,0.108 1.5,0.324 0.474,0.214 0.87,0.56 1.189,1.033 z"
               style="fill:#0074bc;fill-opacity:1;fill-rule:nonzero;stroke:none"
               id="path32" />
          </g>
          <g
             id="g34"
             transform="translate(148.2207,1084.2527)">
            <path
               d="M 0,0 C -0.198,0.276 -0.452,0.498 -0.763,0.666 -1.073,0.833 -1.448,0.918 -1.887,0.918 -2.111,0.918 -2.34,0.883 -2.572,0.814 -2.805,0.745 -3.016,0.64 -3.206,0.498 -3.396,0.355 -3.548,0.177 -3.665,-0.039 c -0.116,-0.215 -0.174,-0.469 -0.174,-0.762 0,-0.294 0.056,-0.535 0.167,-0.724 0.112,-0.19 0.26,-0.351 0.445,-0.485 0.185,-0.134 0.395,-0.243 0.632,-0.33 0.236,-0.086 0.483,-0.172 0.741,-0.258 0.318,-0.104 0.638,-0.215 0.96,-0.336 0.323,-0.121 0.613,-0.278 0.871,-0.472 0.257,-0.194 0.468,-0.44 0.631,-0.737 0.163,-0.297 0.245,-0.674 0.245,-1.131 0,-0.457 -0.087,-0.851 -0.261,-1.183 -0.175,-0.332 -0.401,-0.605 -0.679,-0.82 -0.278,-0.216 -0.596,-0.375 -0.954,-0.479 -0.357,-0.103 -0.717,-0.155 -1.079,-0.155 -0.276,0 -0.551,0.028 -0.827,0.084 -0.276,0.056 -0.539,0.14 -0.789,0.252 -0.25,0.112 -0.482,0.254 -0.698,0.427 -0.215,0.172 -0.405,0.37 -0.568,0.594 l 0.801,0.595 c 0.198,-0.328 0.476,-0.601 0.833,-0.821 0.358,-0.22 0.778,-0.329 1.261,-0.329 0.232,0 0.469,0.036 0.711,0.109 0.241,0.073 0.459,0.186 0.653,0.336 0.194,0.151 0.353,0.336 0.478,0.556 0.125,0.22 0.187,0.477 0.187,0.77 0,0.318 -0.062,0.583 -0.187,0.795 -0.125,0.21 -0.291,0.387 -0.498,0.529 -0.207,0.142 -0.444,0.261 -0.711,0.356 -0.267,0.095 -0.547,0.189 -0.84,0.284 -0.302,0.095 -0.599,0.203 -0.892,0.323 -0.293,0.121 -0.556,0.279 -0.788,0.472 -0.233,0.194 -0.421,0.433 -0.563,0.718 -0.142,0.284 -0.213,0.633 -0.213,1.047 0,0.439 0.088,0.818 0.265,1.137 0.177,0.319 0.407,0.582 0.692,0.789 0.284,0.206 0.599,0.357 0.943,0.452 0.345,0.095 0.685,0.143 1.021,0.143 0.621,0 1.151,-0.11 1.59,-0.33 0.44,-0.22 0.772,-0.481 0.996,-0.782 z"
               style="fill:#0074bc;fill-opacity:1;fill-rule:nonzero;stroke:none"
               id="path36" />
          </g>
          <g
             id="g38"
             transform="translate(72.5889,1080.9309)">
            <path
               d="M 0,0 C 0.336,0.034 0.646,0.112 0.931,0.232 1.215,0.353 1.461,0.515 1.668,0.717 1.875,0.919 2.038,1.159 2.159,1.435 2.28,1.71 2.34,2.017 2.34,2.353 2.34,2.8 2.262,3.18 2.107,3.49 1.952,3.8 1.734,4.052 1.455,4.246 1.174,4.44 0.842,4.58 0.459,4.666 0.076,4.752 -0.34,4.795 -0.788,4.795 H -3.477 V 1.347 h 0.931 v 2.647 h 1.654 c 0.345,0 0.66,-0.03 0.944,-0.09 C 0.336,3.843 0.578,3.749 0.776,3.619 0.974,3.49 1.129,3.322 1.241,3.115 1.353,2.908 1.409,2.654 1.409,2.353 1.409,1.81 1.207,1.402 0.802,1.131 0.396,0.859 -0.181,0.724 -0.931,0.724 h -1.615 v 0 h -0.931 v -5.08 h 0.931 v 4.278 h 1.551 l 2.534,-4.278 h 1.137 z"
               style="fill:#0074bc;fill-opacity:1;fill-rule:nonzero;stroke:none"
               id="path40" />
          </g>
          <g
             id="g42"
             transform="translate(54.6474,1082.3801)">
            <path
               d="M 0,0 V 2.519 H 4.744 V 3.346 H -0.931 V 0 Z"
               style="fill:#0074bc;fill-opacity:1;fill-rule:nonzero;stroke:none"
               id="path44" />
          </g>
          <g
             id="g46"
             transform="translate(54.6474,1077.4021)">
            <path
               d="m 0,0 v 2.902 h -0.931 v -3.73 h 5.83 V 0 Z"
               style="fill:#0074bc;fill-opacity:1;fill-rule:nonzero;stroke:none"
               id="path48" />
          </g>
          <g
             id="g50"
             transform="translate(59.0815,1081.7581)">
            <path
               d="m 0,0 h -3.76 v -0.001 h -1.605 v -0.83 h 0.931 v 0.004 H 0 Z"
               style="fill:#0074bc;fill-opacity:1;fill-rule:nonzero;stroke:none"
               id="path52" />
          </g>
          <g
             id="g54"
             transform="translate(128.7778,1082.3801)">
            <path
               d="M 0,0 V 2.519 H 4.744 V 3.346 H -0.931 V 0 Z"
               style="fill:#0074bc;fill-opacity:1;fill-rule:nonzero;stroke:none"
               id="path56" />
          </g>
          <g
             id="g58"
             transform="translate(128.7778,1077.4021)">
            <path
               d="m 0,0 v 2.902 h -0.931 v -3.73 h 5.83 V 0 Z"
               style="fill:#0074bc;fill-opacity:1;fill-rule:nonzero;stroke:none"
               id="path60" />
          </g>
          <g
             id="g62"
             transform="translate(133.2119,1081.7581)">
            <path
               d="m 0,0 h -3.76 v -0.001 h -1.605 v -0.83 h 0.931 v 0.004 H 0 Z"
               style="fill:#0074bc;fill-opacity:1;fill-rule:nonzero;stroke:none"
               id="path64" />
          </g>
          <g
             id="g66"
             transform="translate(23.4541,1096.6892)">
            <path
               d="M 0,0 V 30.703 H 4.167 L 20.294,6.597 v 24.106 h 3.895 V 0 H 20.021 L 3.896,24.127 V 0 Z"
               style="fill:#0074bc;fill-opacity:1;fill-rule:nonzero;stroke:none"
               id="path68" />
          </g>
          <g
             id="g70"
             transform="translate(74.6318,1112.3337)">
            <path
               d="M 0,0 V -3.602 H 4.863 V -9.32 c -0.866,-0.767 -2.136,-1.49 -3.812,-2.167 -1.676,-0.678 -3.393,-1.016 -5.152,-1.016 -2.024,0 -3.938,0.447 -5.738,1.34 -1.802,0.894 -3.173,2.262 -4.116,4.105 -0.942,1.843 -1.414,4.133 -1.414,6.87 0,2.22 0.391,4.279 1.173,6.178 0.461,1.103 1.107,2.115 1.938,3.037 0.83,0.921 1.923,1.665 3.277,2.23 1.354,0.566 2.96,0.848 4.817,0.848 1.55,0 2.96,-0.269 4.231,-0.806 C 1.337,10.761 2.314,10.046 2.999,9.152 3.563,8.415 4.052,7.448 4.465,6.253 l 3.17,2.492 c -0.437,1.06 -0.964,1.978 -1.578,2.753 -1.02,1.285 -2.427,2.286 -4.221,3.005 -1.794,0.719 -3.801,1.079 -6.021,1.079 -3.058,0 -5.759,-0.628 -8.105,-1.885 -2.346,-1.257 -4.144,-3.18 -5.393,-5.77 -1.25,-2.59 -1.874,-5.379 -1.874,-8.366 0,-3.017 0.628,-5.746 1.885,-8.189 1.256,-2.444 3.116,-4.311 5.581,-5.602 2.464,-1.292 5.204,-1.938 8.22,-1.938 2.234,0 4.412,0.401 6.535,1.204 2.122,0.803 4.181,2 6.178,3.592 V 0.021 Z"
               style="fill:#0074bc;fill-opacity:1;fill-rule:nonzero;stroke:none"
               id="path72" />
          </g>
          <g
             id="g74"
             transform="translate(116.4682,1127.3923)">
            <path
               d="m 0,0 v -3.624 h 10.115 4.063 10.158 V 0 Z"
               style="fill:#0074bc;fill-opacity:1;fill-rule:nonzero;stroke:none"
               id="path76" />
          </g>
          <path
             d="m 126.583,1120.759 h 4.063 v -24.069 h -4.063 z"
             style="fill:#0074bc;fill-opacity:1;fill-rule:nonzero;stroke:none"
             id="path78" />
          <g
             id="g80"
             transform="translate(146.8413,1127.3923)">
            <path
               d="m 0,0 v -3.624 h 10.116 4.063 10.157 V 0 Z"
               style="fill:#0074bc;fill-opacity:1;fill-rule:nonzero;stroke:none"
               id="path82" />
          </g>
          <path
             d="m 156.957,1120.759 h 4.063 v -24.069 h -4.063 z"
             style="fill:#0074bc;fill-opacity:1;fill-rule:nonzero;stroke:none"
             id="path84" />
          <g
             id="g86"
             transform="translate(112.6255,1109.2957)">
            <path
               d="m 0,0 h -7.725 v 0.001 h -6.99 l 3.371,9.006 c 0.712,1.941 1.264,3.895 1.655,5.864 0.474,-1.662 1.201,-3.784 2.178,-6.367 l 1.968,-5.221 h 4.199 l -6.062,14.814 h -4.378 l -11.791,-30.703 h 4.315 l 3.372,9.298 H -3.05 l 3.581,-9.298 H 5.16 Z"
               style="fill:#0074bc;fill-opacity:1;fill-rule:nonzero;stroke:none"
               id="path88" />
          </g>
        </g>
        <g
           id="g1388"
           transform="translate(7.3714)">
          <g
             id="g90"
             transform="translate(89.9443,1189.1121)">
            <path
               d="M 0,0 -23.156,-13.029 V -42.382 L 0,-55.411 23.156,-42.382 v 29.353 z m 0,-57.076 c -0.282,0 -0.565,0.072 -0.817,0.213 l -23.156,13.03 c -0.523,0.294 -0.848,0.851 -0.848,1.451 v 29.353 c 0,0.6 0.325,1.156 0.849,1.451 L -0.817,1.451 c 0.504,0.284 1.129,0.284 1.633,10e-4 l 23.156,-13.03 v 0 c 0.524,-0.295 0.849,-0.851 0.849,-1.451 v -29.353 c 0,-0.6 -0.325,-1.157 -0.848,-1.451 L 0.816,-56.863 C 0.565,-57.004 0.282,-57.076 0,-57.076"
               style="fill:#0074bc;fill-opacity:1;fill-rule:nonzero;stroke:none"
               id="path92" />
          </g>
          <g
             id="g94"
             transform="translate(113.9165,1175.6614)">
            <path
               d="m 0,0 -0.816,1.451 -23.156,-13.029 -19.06,10.724 -0.817,-1.451 19.06,-10.724 c 0.001,-10e-4 0.003,-0.002 0.005,-0.003 v -23.312 h 1.665 v 23.336 z"
               style="fill:#0074bc;fill-opacity:1;fill-rule:nonzero;stroke:none"
               id="path96" />
          </g>
        </g>
      </g>
    </g>
  </g>
</svg>
