<?xml version="1.0" encoding="UTF-8" standalone="no"?>
<svg
   width="904.00006pt"
   height="1280pt"
   viewBox="0 0 904.00006 1280"
   version="1.2"
   id="svg552"
   sodipodi:docname="page_background.svg"
   xmlns:inkscape="http://www.inkscape.org/namespaces/inkscape"
   xmlns:sodipodi="http://sodipodi.sourceforge.net/DTD/sodipodi-0.dtd"
   xmlns:xlink="http://www.w3.org/1999/xlink"
   xmlns="http://www.w3.org/2000/svg"
   xmlns:svg="http://www.w3.org/2000/svg">
  <sodipodi:namedview
     id="namedview554"
     pagecolor="#505050"
     bordercolor="#ffffff"
     borderopacity="1"
     inkscape:showpageshadow="0"
     inkscape:pageopacity="0"
     inkscape:pagecheckerboard="1"
     inkscape:deskcolor="#505050"
     inkscape:document-units="pt"
     showgrid="false" />
  <defs
     id="defs259">
    <filter
       id="alpha"
       filterUnits="objectBoundingBox"
       x="0"
       y="0"
       width="1"
       height="1">
      <feColorMatrix
         type="matrix"
         in="SourceGraphic"
         values="0 0 0 0 1 0 0 0 0 1 0 0 0 0 1 0 0 0 1 0"
         id="feColorMatrix175" />
    </filter>
    <mask
       id="mask0">
      <g
         filter="url(#alpha)"
         id="g180">
        <rect
           x="0"
           y="0"
           width="904"
           height="1280"
           style="fill:#000000;fill-opacity:0.100006;stroke:none"
           id="rect178" />
      </g>
    </mask>
    <clipPath
       id="clip2">
      <path
         d="m 59,421 h 25 v 38.68359 H 59 Z m 0,0"
         id="path183" />
    </clipPath>
    <clipPath
       id="clip3">
      <path
         d="m 351,421 h 34 v 38.68359 h -34 z m 0,0"
         id="path186" />
    </clipPath>
    <clipPath
       id="clip4">
      <path
         d="m 481,421 h 24 v 38.68359 h -24 z m 0,0"
         id="path189" />
    </clipPath>
    <clipPath
       id="clip5">
      <path
         d="M 0.882812,254 H 98 V 379 H 0.882812 Z m 0,0"
         id="path192" />
    </clipPath>
    <clipPath
       id="clip6">
      <path
         d="m 495,254 h 98.32422 v 16 H 495 Z m 0,0"
         id="path195" />
    </clipPath>
    <clipPath
       id="clip7">
      <path
         d="M 167,0.75 H 368 V 237 H 167 Z m 0,0"
         id="path198" />
    </clipPath>
    <clipPath
       id="clip1">
      <rect
         x="0"
         y="0"
         width="594"
         height="460"
         id="rect201" />
    </clipPath>
    <g
       id="surface8168"
       clip-path="url(#clip1)">
      <g
         clip-path="url(#clip2)"
         clip-rule="nonzero"
         id="g206">
        <path
           style="fill:#0073ba;fill-opacity:1;fill-rule:nonzero;stroke:none"
           d="m 79.742188,427.95703 c -0.796876,-1.10547 -1.8125,-1.99609 -3.058594,-2.67187 -1.242188,-0.67188 -2.746094,-1.01172 -4.507813,-1.01172 -0.902343,0 -1.816406,0.14062 -2.75,0.41797 -0.933593,0.27734 -1.78125,0.69921 -2.539062,1.26953 -0.761719,0.57031 -1.375,1.28906 -1.839844,2.15234 -0.464844,0.86328 -0.699219,1.88281 -0.699219,3.05859 0,1.17579 0.222656,2.14063 0.667969,2.90235 0.449219,0.76172 1.046875,1.40625 1.785156,1.94531 0.742188,0.53516 1.585938,0.97656 2.535157,1.32031 0.945312,0.34375 1.9375,0.69141 2.972656,1.03516 1.273437,0.41406 2.558594,0.86719 3.847656,1.34766 1.296875,0.48437 2.457031,1.11718 3.492188,1.89453 1.035156,0.77734 1.878906,1.76172 2.53125,2.95312 0.65625,1.19141 0.984374,2.70703 0.984374,4.53516 0,1.83203 -0.351562,3.41406 -1.046874,4.74609 -0.699219,1.33203 -1.605469,2.42969 -2.722657,3.29297 -1.117187,0.86328 -2.390625,1.5 -3.824219,1.91406 -1.433593,0.41797 -2.878906,0.625 -4.328124,0.625 -1.105469,0 -2.214844,-0.11328 -3.316407,-0.33593 -1.109375,-0.22657 -2.164062,-0.5625 -3.164062,-1.01172 -1.003907,-0.44922 -1.9375,-1.01953 -2.800781,-1.71094 -0.863282,-0.69141 -1.625,-1.48438 -2.28125,-2.38672 l 3.214843,-2.38281 c 0.792969,1.3125 1.910157,2.41015 3.34375,3.29297 1.433594,0.8789 3.117188,1.32031 5.054688,1.32031 0.933593,0 1.882812,-0.14453 2.851562,-0.44141 0.964844,-0.29297 1.839844,-0.74218 2.617188,-1.34765 0.777343,-0.60157 1.417969,-1.34766 1.917969,-2.22657 0.5,-0.88281 0.75,-1.91015 0.75,-3.08593 0,-1.27735 -0.25,-2.34375 -0.75,-3.1875 -0.5,-0.84766 -1.167969,-1.55469 -1.996094,-2.125 -0.828125,-0.57422 -1.78125,-1.04688 -2.851563,-1.42578 -1.070312,-0.38282 -2.195312,-0.76172 -3.367187,-1.14454 -1.210938,-0.3789 -2.40625,-0.80859 -3.578125,-1.29296 -1.175781,-0.48438 -2.230469,-1.11329 -3.164063,-1.89454 -0.929687,-0.77734 -1.683594,-1.73437 -2.253906,-2.875 -0.570312,-1.14062 -0.855469,-2.53906 -0.855469,-4.19921 0,-1.76172 0.355469,-3.28516 1.0625,-4.5625 0.710938,-1.27735 1.632813,-2.33204 2.773438,-3.16016 1.140625,-0.83203 2.402343,-1.4375 3.785156,-1.81641 1.382813,-0.3789 2.746094,-0.57031 4.09375,-0.57031 2.488281,0 4.613281,0.44141 6.378906,1.32031 1.761719,0.88282 3.089844,1.92969 3.992188,3.13672 z m 0,0"
           id="path204" />
      </g>
      <path
         style="fill:#0073ba;fill-opacity:1;fill-rule:nonzero;stroke:none"
         d="m 256.72656,453.92969 h 0.10156 l 11.92579,-31.88282 h 3.99218 L 258.69531,458.75 h -3.9414 l -13.9961,-36.70313 h 4.04688 z m 0,0"
         id="path208" />
      <path
         style="fill:#0073ba;fill-opacity:1;fill-rule:nonzero;stroke:none"
         d="m 312.55859,458.75 h -3.73437 v -36.70313 h 3.73437 z m 0,0"
         id="path210" />
      <g
         clip-path="url(#clip3)"
         clip-rule="nonzero"
         id="g214">
        <path
           style="fill:#0073ba;fill-opacity:1;fill-rule:nonzero;stroke:none"
           d="m 384.25391,452.78906 c -0.6211,0.9336 -1.375,1.8125 -2.25391,2.64453 -0.88281,0.83203 -1.90234,1.5625 -3.05859,2.19532 -1.16016,0.63281 -2.4375,1.13281 -3.83594,1.5 -1.40235,0.36718 -2.92969,0.55468 -4.58985,0.55468 -2.76562,0 -5.32421,-0.48437 -7.67187,-1.45312 -2.35156,-0.96485 -4.37109,-2.30469 -6.06641,-4.01563 -1.69531,-1.71093 -3.01562,-3.74218 -3.96484,-6.08984 -0.95313,-2.35156 -1.42578,-4.92578 -1.42578,-7.72656 0,-2.80078 0.48047,-5.375 1.45312,-7.72266 0.96485,-2.35156 2.30469,-4.38281 4.01563,-6.09375 1.71094,-1.71094 3.73437,-3.05078 6.0664,-4.01953 2.33204,-0.96484 4.86329,-1.44922 7.59375,-1.44922 1.34766,0 2.67188,0.14063 3.96485,0.42188 1.29687,0.28125 2.51562,0.67578 3.65625,1.18359 1.14062,0.50781 2.17578,1.12109 3.10937,1.83594 0.9336,0.71093 1.71094,1.51953 2.33203,2.41797 l -3.10937,2.28125 c -0.37891,-0.58985 -0.89063,-1.17579 -1.52734,-1.76563 -0.64063,-0.58594 -1.39454,-1.10547 -2.25782,-1.55469 -0.86328,-0.44922 -1.80468,-0.80859 -2.82422,-1.08593 -1.01953,-0.27735 -2.11718,-0.41407 -3.29296,-0.41407 -2.38282,0 -4.51954,0.42578 -6.40235,1.28907 -1.88281,0.86328 -3.48047,2.02343 -4.79297,3.48828 -1.3164,1.46484 -2.3164,3.16015 -3.00781,5.08984 -0.69141,1.92969 -1.03906,3.96094 -1.03906,6.09766 0,2.13672 0.35547,4.16797 1.0664,6.09765 0.70704,1.92969 1.71875,3.625 3.03125,5.08985 1.3125,1.46484 2.91016,2.625 4.79688,3.48828 1.88281,0.85937 4,1.28906 6.34766,1.28906 2.10937,0 4.11328,-0.42969 6.01171,-1.29687 1.90235,-0.85938 3.49219,-2.24219 4.77344,-4.14454 z m 0,0"
           id="path212" />
      </g>
      <g
         clip-path="url(#clip4)"
         clip-rule="nonzero"
         id="g218">
        <path
           style="fill:#0073ba;fill-opacity:1;fill-rule:nonzero;stroke:none"
           d="m 501.25391,427.95703 c -0.79297,-1.10547 -1.8125,-1.99609 -3.0586,-2.67187 -1.24219,-0.67188 -2.74609,-1.01172 -4.50781,-1.01172 -0.89844,0 -1.81641,0.14062 -2.75,0.41797 -0.92969,0.27734 -1.77734,0.69921 -2.53906,1.26953 -0.75782,0.57031 -1.3711,1.28906 -1.83985,2.15234 -0.46484,0.86328 -0.69922,1.88281 -0.69922,3.05859 0,1.17579 0.22266,2.14063 0.67188,2.90235 0.44922,0.76172 1.04297,1.40625 1.78516,1.94531 0.73828,0.53516 1.58593,0.97656 2.53125,1.32031 0.94531,0.34375 1.9375,0.69141 2.97265,1.03516 1.27735,0.41406 2.5586,0.86719 3.85156,1.34766 1.29297,0.48437 2.45704,1.11718 3.48829,1.89453 1.03515,0.77734 1.8789,1.76172 2.53515,2.95312 0.65235,1.19141 0.98047,2.70703 0.98047,4.53516 0,1.83203 -0.34766,3.41406 -1.04687,4.74609 -0.69922,1.33203 -1.60547,2.42969 -2.72266,3.29297 -1.11719,0.86328 -2.39063,1.5 -3.82422,1.91406 -1.43359,0.41797 -2.87891,0.625 -4.32812,0.625 -1.10547,0 -2.21094,-0.11328 -3.31641,-0.33593 -1.10938,-0.22657 -2.16016,-0.5625 -3.16406,-1.01172 -1,-0.44922 -1.9336,-1.01953 -2.80078,-1.71094 -0.86329,-0.69141 -1.6211,-1.48438 -2.28125,-2.38672 l 3.21484,-2.38281 c 0.79687,1.3125 1.91016,2.41015 3.34375,3.29297 1.43359,0.8789 3.12109,1.32031 5.05469,1.32031 0.93359,0 1.88281,-0.14453 2.85156,-0.44141 0.96875,-0.29297 1.83984,-0.74218 2.62109,-1.34765 0.77735,-0.60157 1.41407,-1.34766 1.91407,-2.22657 0.5,-0.88281 0.7539,-1.91015 0.7539,-3.08593 0,-1.27735 -0.2539,-2.34375 -0.7539,-3.1875 -0.5,-0.84766 -1.16407,-1.55469 -1.9961,-2.125 -0.82812,-0.57422 -1.77734,-1.04688 -2.84765,-1.42578 -1.07422,-0.38282 -2.19532,-0.76172 -3.3711,-1.14454 -1.21094,-0.3789 -2.40234,-0.80859 -3.57812,-1.29296 -1.17578,-0.48438 -2.23047,-1.11329 -3.16407,-1.89454 -0.92968,-0.77734 -1.68359,-1.73437 -2.2539,-2.875 -0.57031,-1.14062 -0.85547,-2.53906 -0.85547,-4.19921 0,-1.76172 0.35547,-3.28516 1.0625,-4.5625 0.71094,-1.27735 1.63281,-2.33204 2.77734,-3.16016 1.13672,-0.83203 2.39844,-1.4375 3.78125,-1.81641 1.38282,-0.3789 2.7461,-0.57031 4.09766,-0.57031 2.48437,0 4.61328,0.44141 6.375,1.32031 1.76172,0.88282 3.09375,1.92969 3.99219,3.13672 z m 0,0"
           id="path216" />
      </g>
      <path
         style="fill:#0073ba;fill-opacity:1;fill-rule:nonzero;stroke:none"
         d="m 197.9375,441.28125 c 1.34766,-0.14063 2.59375,-0.44922 3.73437,-0.9375 1.14063,-0.48047 2.125,-1.12891 2.95313,-1.94141 0.83203,-0.8125 1.48828,-1.76953 1.96875,-2.875 0.48437,-1.10937 0.72656,-2.33593 0.72656,-3.68359 0,-1.79688 -0.30859,-3.31641 -0.93359,-4.5625 -0.6211,-1.24219 -1.49219,-2.25391 -2.61719,-3.03125 -1.12109,-0.77734 -2.45312,-1.33984 -3.98828,-1.68359 -1.53906,-0.34766 -3.20703,-0.51954 -5.00391,-0.51954 H 183.99219 V 435.875 h 3.73437 v -10.61328 h 6.63672 c 1.37891,0 2.64063,0.12109 3.78125,0.36328 1.14063,0.24219 2.10938,0.62109 2.90234,1.13672 0.79688,0.51953 1.41797,1.19531 1.86719,2.02344 0.44922,0.83203 0.67578,1.84765 0.67578,3.05859 0,2.17969 -0.8125,3.8125 -2.4375,4.89844 -1.625,1.08984 -3.9414,1.63281 -6.94531,1.63281 h -10.21484 v 20.375 h 3.73437 v -17.16016 h 6.21875 L 204.10547,458.75 h 4.5625 z m 0,0"
         id="path220" />
      <path
         style="fill:#0073ba;fill-opacity:1;fill-rule:nonzero;stroke:none"
         d="m 125.98438,435.46875 v -10.10547 h 19.02343 v -3.31641 h -22.7539 v 13.42188 z m 0,0"
         id="path222" />
      <path
         style="fill:#0073ba;fill-opacity:1;fill-rule:nonzero;stroke:none"
         d="m 125.98438,455.43359 v -11.64062 h -3.73047 V 458.75 h 23.3789 v -3.31641 z m 0,0"
         id="path224" />
      <path
         style="fill:#0073ba;fill-opacity:1;fill-rule:nonzero;stroke:none"
         d="M 143.76562,437.96094 H 128.6875 v 0.004 H 122.25 v 3.32813 h 3.73438 v -0.0156 h 17.78124 z m 0,0"
         id="path226" />
      <path
         style="fill:#0073ba;fill-opacity:1;fill-rule:nonzero;stroke:none"
         d="m 423.28125,435.46875 v -10.10547 h 19.02734 v -3.31641 h -22.75781 v 13.42188 z m 0,0"
         id="path228" />
      <path
         style="fill:#0073ba;fill-opacity:1;fill-rule:nonzero;stroke:none"
         d="m 423.28125,455.43359 v -11.64062 h -3.73047 V 458.75 h 23.37891 v -3.31641 z m 0,0"
         id="path230" />
      <path
         style="fill:#0073ba;fill-opacity:1;fill-rule:nonzero;stroke:none"
         d="m 441.0625,437.96094 h -15.07813 v 0.004 h -6.4375 v 3.32813 h 3.73438 v -0.0156 h 17.78125 z m 0,0"
         id="path232" />
      <g
         clip-path="url(#clip5)"
         clip-rule="nonzero"
         id="g236">
        <path
           style="fill:#0073ba;fill-opacity:1;fill-rule:nonzero;stroke:none"
           d="M 0.882812,378.08203 V 254.94922 h 16.714844 l 64.675782,96.67187 V 254.94922 H 97.894531 V 378.08203 H 81.179688 L 16.507812,281.32031 v 96.76172 z m 0,0"
           id="path234" />
      </g>
      <path
         style="fill:#0073ba;fill-opacity:1;fill-rule:nonzero;stroke:none"
         d="m 206.12891,315.33984 v 14.44532 h 19.5039 v 22.92968 c -3.47265,3.08203 -8.5664,5.97657 -15.28515,8.69141 -6.72266,2.71875 -13.60938,4.07422 -20.66407,4.07422 -8.12109,0 -15.78906,-1.78906 -23.01562,-5.375 -7.22266,-3.58203 -12.72266,-9.07031 -16.50391,-16.46094 -3.77734,-7.39062 -5.66797,-16.57422 -5.66797,-27.55078 0,-8.90234 1.56641,-17.16016 4.70313,-24.77734 1.84765,-4.42188 4.4375,-8.48438 7.76953,-12.17969 3.33203,-3.69531 7.71484,-6.67578 13.14453,-8.94531 5.42969,-2.26954 11.87109,-3.40235 19.32031,-3.40235 6.21485,0 11.86719,1.08203 16.96485,3.23438 5.09375,2.15625 9.01562,5.02734 11.75781,8.60937 2.26562,2.96094 4.22656,6.83594 5.87891,11.62891 L 236.75,280.26953 c -1.75391,-4.25391 -3.86328,-7.93359 -6.33203,-11.04297 -4.08594,-5.15234 -9.72656,-9.16797 -16.92188,-12.05469 -7.19531,-2.8789 -15.24609,-4.32421 -24.14843,-4.32421 -12.26172,0 -23.09766,2.51953 -32.50391,7.55859 -9.40625,5.03906 -16.61719,12.75391 -21.62891,23.14062 -5.01172,10.38672 -7.51953,21.57032 -7.51953,33.55469 0,12.09375 2.52344,23.04297 7.5625,32.83985 5.03906,9.80078 12.5,17.29296 22.38281,22.46875 9.88282,5.17968 20.8711,7.76953 32.96875,7.76953 8.95704,0 17.69141,-1.60938 26.20313,-4.82813 8.51172,-3.21875 16.76953,-8.02344 24.77734,-14.40625 v -45.6914 z m 0,0"
         id="path238" />
      <path
         style="fill:#0073ba;fill-opacity:1;fill-rule:nonzero;stroke:none"
         d="m 373.91406,254.94922 v 14.52734 h 97.59766 v -14.52734 z m 0,0"
         id="path240" />
      <path
         style="fill:#0073ba;fill-opacity:1;fill-rule:nonzero;stroke:none"
         d="m 414.48047,281.55078 h 16.29297 v 96.52734 h -16.29297 z m 0,0"
         id="path242" />
      <g
         clip-path="url(#clip6)"
         clip-rule="nonzero"
         id="g246">
        <path
           style="fill:#0073ba;fill-opacity:1;fill-rule:nonzero;stroke:none"
           d="m 495.72266,254.94922 v 14.52734 h 97.60156 v -14.52734 z m 0,0"
           id="path244" />
      </g>
      <path
         style="fill:#0073ba;fill-opacity:1;fill-rule:nonzero;stroke:none"
         d="m 536.29297,281.55078 h 16.29297 v 96.52734 h -16.29297 z m 0,0"
         id="path248" />
      <path
         style="fill:#0073ba;fill-opacity:1;fill-rule:nonzero;stroke:none"
         d="m 358.50391,327.52344 h -30.98047 v -0.008 h -28.03907 l 13.52344,-36.11328 c 2.85547,-7.78515 5.06641,-15.625 6.63672,-23.51953 1.90234,6.66406 4.81641,15.17578 8.73438,25.53516 l 7.89062,20.9375 h 16.84375 l -24.3125,-59.40625 h -17.55469 l -47.28906,123.13281 h 17.30469 l 13.51953,-37.29297 h 51.48828 l 14.36328,37.29297 h 18.5625 z m 0,0"
         id="path250" />
      <g
         clip-path="url(#clip7)"
         clip-rule="nonzero"
         id="g254">
        <path
           style="fill:#0073ba;fill-opacity:1;fill-rule:nonzero;stroke:none"
           d="M 267.53906,7.421875 174.67578,59.675781 V 177.39453 l 92.86328,52.25391 92.86719,-52.25391 V 59.675781 Z m 0,228.898435 c -1.13281,0 -2.26562,-0.28125 -3.27344,-0.85156 l -92.86718,-52.25391 c -2.09766,-1.17968 -3.40235,-3.41406 -3.40235,-5.82031 V 59.675781 c 0,-2.410156 1.30469,-4.640625 3.40235,-5.820312 L 264.26562,1.601562 c 2.01954,-1.136718 4.53125,-1.136718 6.55079,0 l 92.86328,52.253907 c 2.10156,1.179687 3.40625,3.410156 3.40625,5.820312 V 177.39453 c 0,2.40625 -1.30469,4.63672 -3.40235,5.82031 l -92.86718,52.25391 c -1.01172,0.57031 -2.14063,0.85156 -3.27735,0.85156"
           id="path252" />
      </g>
      <path
         style="fill:#0073ba;fill-opacity:1;fill-rule:nonzero;stroke:none"
         d="m 363.67969,61.367188 -3.27344,-5.824219 -92.86719,52.253911 -76.43359,-43.007818 -3.27735,5.820313 76.4375,43.007815 c 0.008,0.004 0.0117,0.008 0.0195,0.0117 v 93.49218 h 6.67968 v -93.58593 z m 0,0"
         id="path256" />
    </g>
  </defs>
  <g
     id="surface8164">
    <path
       style="fill:#0073ba;fill-opacity:1;fill-rule:nonzero;stroke:none"
       d="m 43.117188,195.74609 c -0.199219,-0.27343 -0.453126,-0.49609 -0.761719,-0.66406 -0.3125,-0.16797 -0.6875,-0.25391 -1.125,-0.25391 -0.222657,0 -0.453125,0.0352 -0.683594,0.10547 -0.234375,0.0703 -0.445313,0.17188 -0.636719,0.31641 -0.1875,0.14062 -0.339844,0.32031 -0.457031,0.53516 -0.117187,0.21484 -0.175781,0.46875 -0.175781,0.76171 0,0.29688 0.05859,0.53516 0.167968,0.72657 0.113282,0.1875 0.261719,0.35156 0.445313,0.48437 0.183594,0.13281 0.394531,0.24219 0.632813,0.32813 0.234374,0.0859 0.480468,0.17187 0.738281,0.25781 0.320312,0.10547 0.640625,0.21484 0.960937,0.33594 0.324219,0.12109 0.613282,0.28125 0.871094,0.47265 0.257812,0.19532 0.46875,0.44141 0.632812,0.73828 0.160157,0.29688 0.242188,0.67188 0.242188,1.12891 0,0.45703 -0.08594,0.85156 -0.257812,1.18359 -0.175782,0.33204 -0.402344,0.60547 -0.679688,0.82032 -0.277344,0.21875 -0.597656,0.375 -0.953125,0.48047 -0.359375,0.10156 -0.71875,0.15625 -1.082031,0.15625 -0.273438,0 -0.550782,-0.0312 -0.824219,-0.0859 -0.277344,-0.0547 -0.539063,-0.14063 -0.789063,-0.25 -0.25,-0.11328 -0.484374,-0.25781 -0.699218,-0.42969 -0.214844,-0.17187 -0.40625,-0.37109 -0.570313,-0.59375 l 0.804688,-0.59375 c 0.195312,0.32813 0.472656,0.60156 0.832031,0.82031 0.355469,0.21875 0.777344,0.32813 1.261719,0.32813 0.230469,0 0.46875,-0.0352 0.710937,-0.10938 0.238282,-0.0703 0.457032,-0.18359 0.652344,-0.33593 0.191406,-0.14844 0.351562,-0.33594 0.476562,-0.55469 0.125,-0.21875 0.1875,-0.47656 0.1875,-0.76953 0,-0.32032 -0.0625,-0.58203 -0.1875,-0.79688 -0.125,-0.20703 -0.289062,-0.38672 -0.496093,-0.52734 -0.207031,-0.14063 -0.445313,-0.26172 -0.710938,-0.35547 -0.269531,-0.0977 -0.546875,-0.19141 -0.839843,-0.28516 -0.300782,-0.0937 -0.601563,-0.20312 -0.894532,-0.32422 -0.292968,-0.12109 -0.554687,-0.27734 -0.785156,-0.46875 -0.234375,-0.19531 -0.421875,-0.43359 -0.566406,-0.71875 -0.140625,-0.28515 -0.210938,-0.63281 -0.210938,-1.04687 0,-0.44141 0.08594,-0.82031 0.265625,-1.13672 0.175781,-0.32031 0.40625,-0.58203 0.691407,-0.78906 0.285156,-0.20703 0.597656,-0.35938 0.941406,-0.45313 0.347656,-0.0937 0.6875,-0.14453 1.023437,-0.14453 0.621094,0 1.148438,0.10938 1.589844,0.33203 0.4375,0.21875 0.769531,0.48047 0.996094,0.78125 z m 0,0"
       id="path261" />
    <path
       style="fill:#0073ba;fill-opacity:1;fill-rule:nonzero;stroke:none"
       d="m 87.246094,202.22266 h 0.02734 l 2.972656,-7.94922 h 0.996094 l -3.503907,9.15234 h -0.980469 l -3.492187,-9.15234 h 1.007813 z m 0,0"
       id="path263" />
    <path
       style="fill:#0073ba;fill-opacity:1;fill-rule:nonzero;stroke:none"
       d="m 101.16797,203.42578 h -0.92969 v -9.15234 h 0.92969 z m 0,0"
       id="path265" />
    <path
       style="fill:#0073ba;fill-opacity:1;fill-rule:nonzero;stroke:none"
       d="m 119.04688,201.9375 c -0.15625,0.23437 -0.34375,0.45312 -0.5625,0.66016 -0.21875,0.20703 -0.47657,0.39062 -0.76172,0.54687 -0.28907,0.16016 -0.60938,0.28516 -0.95703,0.375 -0.34766,0.0937 -0.73047,0.13672 -1.14454,0.13672 -0.6914,0 -1.32812,-0.11719 -1.91406,-0.35938 -0.58594,-0.24218 -1.08984,-0.57421 -1.51172,-1.0039 -0.42187,-0.42578 -0.75,-0.92969 -0.98828,-1.51953 -0.23828,-0.58594 -0.35547,-1.22657 -0.35547,-1.92578 0,-0.69532 0.1211,-1.33985 0.36328,-1.92579 0.23829,-0.58593 0.57422,-1.08984 1,-1.51562 0.42579,-0.42969 0.92969,-0.76172 1.51172,-1.00391 0.58203,-0.23828 1.21485,-0.35937 1.89453,-0.35937 0.33594,0 0.66407,0.0352 0.98829,0.10156 0.32421,0.0703 0.6289,0.16797 0.91015,0.29688 0.28516,0.125 0.54297,0.28125 0.77735,0.45703 0.23437,0.17968 0.42578,0.3789 0.58203,0.60547 l -0.77735,0.5664 c -0.0937,-0.14453 -0.22265,-0.29297 -0.3789,-0.4375 -0.16016,-0.14844 -0.34766,-0.27734 -0.5625,-0.39062 -0.21485,-0.10938 -0.44922,-0.19922 -0.70703,-0.26953 -0.25391,-0.0703 -0.52735,-0.10547 -0.82032,-0.10547 -0.59375,0 -1.125,0.10937 -1.59375,0.32422 -0.47265,0.21484 -0.87109,0.5039 -1.19922,0.86718 -0.32421,0.36719 -0.57421,0.78907 -0.74609,1.26953 -0.17578,0.48047 -0.26172,0.98829 -0.26172,1.51954 0,0.53515 0.0898,1.04296 0.26563,1.52343 0.17968,0.48047 0.42968,0.90235 0.75781,1.26953 0.32812,0.36329 0.72656,0.65235 1.19531,0.86719 0.46875,0.21485 0.9961,0.32422 1.58203,0.32422 0.52735,0 1.02735,-0.10937 1.5,-0.32422 0.47266,-0.21484 0.8711,-0.5625 1.19141,-1.03515 z m 0,0"
       id="path267" />
    <path
       style="fill:#0073ba;fill-opacity:1;fill-rule:nonzero;stroke:none"
       d="m 148.21875,195.74609 c -0.19531,-0.27343 -0.44922,-0.49609 -0.76172,-0.66406 -0.30859,-0.16797 -0.68359,-0.25391 -1.125,-0.25391 -0.22266,0 -0.45312,0.0352 -0.68359,0.10547 -0.23438,0.0703 -0.44532,0.17188 -0.63282,0.31641 -0.1914,0.14062 -0.34375,0.32031 -0.46093,0.53516 -0.11328,0.21484 -0.17188,0.46875 -0.17188,0.76171 0,0.29688 0.0547,0.53516 0.16406,0.72657 0.11329,0.1875 0.26172,0.35156 0.44532,0.48437 0.1875,0.13281 0.39843,0.24219 0.63281,0.32813 0.23828,0.0859 0.48437,0.17187 0.74219,0.25781 0.3164,0.10547 0.63672,0.21484 0.96093,0.33594 0.32032,0.12109 0.61329,0.28125 0.8711,0.47265 0.2539,0.19532 0.46484,0.44141 0.6289,0.73828 0.16407,0.29688 0.2461,0.67188 0.2461,1.12891 0,0.45703 -0.0859,0.85156 -0.26172,1.18359 -0.17578,0.33204 -0.40234,0.60547 -0.67969,0.82032 -0.27734,0.21875 -0.59375,0.375 -0.95312,0.48047 -0.35547,0.10156 -0.71875,0.15625 -1.07813,0.15625 -0.27734,0 -0.55078,-0.0312 -0.82812,-0.0859 -0.27735,-0.0547 -0.53907,-0.14063 -0.78907,-0.25 -0.25,-0.11328 -0.48046,-0.25781 -0.69921,-0.42969 -0.21485,-0.17187 -0.40235,-0.37109 -0.56641,-0.59375 l 0.80078,-0.59375 c 0.19922,0.32813 0.47656,0.60156 0.83203,0.82031 0.35938,0.21875 0.77735,0.32813 1.26172,0.32813 0.23047,0 0.46875,-0.0352 0.71094,-0.10938 0.24219,-0.0703 0.46094,-0.18359 0.65234,-0.33593 0.19531,-0.14844 0.35547,-0.33594 0.48047,-0.55469 0.125,-0.21875 0.1875,-0.47656 0.1875,-0.76953 0,-0.32032 -0.0625,-0.58203 -0.1875,-0.79688 -0.125,-0.20703 -0.29297,-0.38672 -0.5,-0.52734 -0.20703,-0.14063 -0.44141,-0.26172 -0.71094,-0.35547 -0.26562,-0.0977 -0.54687,-0.19141 -0.83984,-0.28516 -0.30078,-0.0937 -0.59766,-0.20312 -0.89063,-0.32422 -0.29296,-0.12109 -0.55859,-0.27734 -0.78906,-0.46875 -0.23437,-0.19531 -0.42187,-0.43359 -0.5625,-0.71875 -0.14062,-0.28515 -0.21484,-0.63281 -0.21484,-1.04687 0,-0.44141 0.0898,-0.82031 0.26562,-1.13672 0.17969,-0.32031 0.40625,-0.58203 0.69141,-0.78906 0.28516,-0.20703 0.60156,-0.35938 0.94531,-0.45313 0.34375,-0.0937 0.6836,-0.14453 1.01953,-0.14453 0.6211,0 1.15235,0.10938 1.58985,0.33203 0.4414,0.21875 0.77343,0.48047 0.99609,0.78125 z m 0,0"
       id="path269" />
    <path
       style="fill:#0073ba;fill-opacity:1;fill-rule:nonzero;stroke:none"
       d="m 72.589844,199.07031 c 0.335937,-0.0352 0.644531,-0.11328 0.929687,-0.23437 0.285157,-0.1211 0.53125,-0.28125 0.738281,-0.48438 0.207032,-0.20312 0.367188,-0.4414 0.488282,-0.71875 0.121094,-0.27344 0.183594,-0.58203 0.183594,-0.91797 0,-0.44531 -0.07813,-0.82422 -0.234376,-1.13672 -0.15625,-0.30859 -0.371093,-0.5625 -0.652343,-0.7539 -0.28125,-0.19531 -0.613281,-0.33594 -0.996094,-0.42188 -0.382813,-0.0859 -0.796875,-0.1289 -1.246094,-0.1289 h -2.6875 v 3.44922 h 0.929688 v -2.64844 h 1.652343 c 0.347657,0 0.660157,0.0312 0.945313,0.0898 0.285156,0.0625 0.527344,0.15625 0.722656,0.28516 0.199219,0.1289 0.355469,0.29687 0.464844,0.5039 0.113281,0.20704 0.167969,0.46094 0.167969,0.76172 0,0.54297 -0.199219,0.95313 -0.605469,1.22266 -0.40625,0.27344 -0.984375,0.40625 -1.734375,0.40625 h -2.542969 v 5.08203 h 0.929688 v -4.27734 h 1.550781 l 2.535156,4.27734 h 1.136719 z m 0,0"
       id="path271" />
    <path
       style="fill:#0073ba;fill-opacity:1;fill-rule:nonzero;stroke:none"
       d="m 54.648438,197.62109 v -2.51953 h 4.742187 v -0.82812 h -5.675781 v 3.34765 z m 0,0"
       id="path273" />
    <path
       style="fill:#0073ba;fill-opacity:1;fill-rule:nonzero;stroke:none"
       d="m 54.648438,202.59766 v -2.90235 h -0.933594 v 3.73047 h 5.832031 v -0.82812 z m 0,0"
       id="path275" />
    <path
       style="fill:#0073ba;fill-opacity:1;fill-rule:nonzero;stroke:none"
       d="m 59.082031,198.24219 h -5.367187 v 0.83203 h 0.933594 v -0.004 h 4.433593 z m 0,0"
       id="path277" />
    <path
       style="fill:#0073ba;fill-opacity:1;fill-rule:nonzero;stroke:none"
       d="m 128.77734,197.62109 v -2.51953 h 4.7461 v -0.82812 h -5.67578 v 3.34765 z m 0,0"
       id="path279" />
    <path
       style="fill:#0073ba;fill-opacity:1;fill-rule:nonzero;stroke:none"
       d="m 128.77734,202.59766 v -2.90235 h -0.92968 v 3.73047 h 5.82812 v -0.82812 z m 0,0"
       id="path281" />
    <path
       style="fill:#0073ba;fill-opacity:1;fill-rule:nonzero;stroke:none"
       d="m 133.21094,198.24219 h -5.36328 v 0.83203 h 0.92968 v -0.004 h 4.4336 z m 0,0"
       id="path283" />
    <path
       style="fill:#0073ba;fill-opacity:1;fill-rule:nonzero;stroke:none"
       d="m 23.453125,183.3125 v -30.70313 h 4.167969 L 43.75,176.71484 v -24.10547 h 3.894531 v 30.70313 h -4.167969 l -16.125,-24.12891 v 24.12891 z m 0,0"
       id="path285" />
    <path
       style="fill:#0073ba;fill-opacity:1;fill-rule:nonzero;stroke:none"
       d="m 74.632812,167.66797 v 3.60156 h 4.863282 v 5.71484 c -0.867188,0.76954 -2.136719,1.49219 -3.8125,2.16797 -1.675782,0.67969 -3.394532,1.01563 -5.152344,1.01563 -2.023438,0 -3.9375,-0.44531 -5.738281,-1.33985 -1.800781,-0.89453 -3.171875,-2.26171 -4.117188,-4.10546 -0.941406,-1.83985 -1.414062,-4.13282 -1.414062,-6.86719 0,-2.22266 0.390625,-4.28125 1.175781,-6.17969 0.460938,-1.10156 1.105469,-2.11328 1.9375,-3.03516 0.828125,-0.92187 1.921875,-1.66796 3.277344,-2.23046 1.351562,-0.56641 2.957031,-0.84766 4.816406,-0.84766 1.550781,0 2.960938,0.26953 4.230469,0.80469 1.269531,0.53906 2.246093,1.2539 2.929687,2.14843 0.566406,0.73438 1.054688,1.70313 1.46875,2.89844 l 3.167969,-2.49219 c -0.4375,-1.0625 -0.960937,-1.98046 -1.578125,-2.7539 -1.019531,-1.28516 -2.425781,-2.28516 -4.21875,-3.00391 -1.796875,-0.71875 -3.800781,-1.07812 -6.023438,-1.07812 -3.054687,0 -5.757812,0.625 -8.101562,1.88281 -2.347656,1.25781 -4.144531,3.17969 -5.394531,5.76953 -1.25,2.58984 -1.875,5.37891 -1.875,8.36719 0,3.01562 0.628906,5.74609 1.886719,8.1875 1.253906,2.44531 3.113281,4.3125 5.578124,5.60156 2.464844,1.29297 5.207032,1.94141 8.222657,1.94141 2.234375,0 4.410156,-0.40235 6.535156,-1.20703 2.121094,-0.80079 4.179687,-2 6.175781,-3.58985 v -11.39453 z m 0,0"
       id="path287" />
    <path
       style="fill:#0073ba;fill-opacity:1;fill-rule:nonzero;stroke:none"
       d="m 116.46875,152.60937 v 3.6211 h 24.33594 v -3.6211 z m 0,0"
       id="path289" />
    <path
       style="fill:#0073ba;fill-opacity:1;fill-rule:nonzero;stroke:none"
       d="m 126.58203,159.24219 h 4.0625 v 24.0664 h -4.0625 z m 0,0"
       id="path291" />
    <path
       style="fill:#0073ba;fill-opacity:1;fill-rule:nonzero;stroke:none"
       d="m 146.83984,152.60937 v 3.6211 h 24.33594 v -3.6211 z m 0,0"
       id="path293" />
    <path
       style="fill:#0073ba;fill-opacity:1;fill-rule:nonzero;stroke:none"
       d="m 156.95703,159.24219 h 4.0625 v 24.0664 h -4.0625 z m 0,0"
       id="path295" />
    <path
       style="fill:#0073ba;fill-opacity:1;fill-rule:nonzero;stroke:none"
       d="M 112.625,170.70312 H 97.910156 l 3.371094,-9.0039 c 0.71094,-1.94141 1.26563,-3.89844 1.65625,-5.86719 0.47266,1.66406 1.19922,3.78516 2.17578,6.36719 l 1.96875,5.22265 h 4.19922 l -6.0625,-14.8164 h -4.37891 l -11.789059,30.70312 h 4.316407 l 3.371093,-9.29687 h 12.835939 l 3.58203,9.29687 h 4.62891 z m 0,0"
       id="path297" />
    <path
       style="fill:#0073ba;fill-opacity:1;fill-rule:nonzero;stroke:none"
       d="m 89.945312,90.886719 -23.15625,13.031251 v 29.35156 l 23.15625,13.03125 23.156248,-13.03125 v -29.35156 z m 0,57.078121 c -0.28125,0 -0.566406,-0.0742 -0.816406,-0.21484 L 65.972656,134.72266 C 65.449219,134.42578 65.125,133.87109 65.125,133.26953 v -29.35156 c 0,-0.60156 0.324219,-1.15625 0.847656,-1.45313 L 89.128906,89.4375 c 0.503906,-0.285156 1.128906,-0.285156 1.632813,0 l 23.156251,13.02734 c 0.52344,0.29688 0.84766,0.85157 0.84766,1.45313 v 29.35156 c 0,0.60156 -0.32422,1.15625 -0.84766,1.45313 L 90.761719,147.75 c -0.253907,0.14062 -0.535157,0.21484 -0.816407,0.21484"
       id="path299" />
    <path
       style="fill:#0073ba;fill-opacity:1;fill-rule:nonzero;stroke:none"
       d="m 113.91797,104.33984 -0.81641,-1.45312 -23.156248,13.03125 -19.0625,-10.72656 -0.816406,1.45312 19.0625,10.72266 c 0,0 0,0.004 0.0039,0.004 v 23.3125 h 1.664063 v -23.33593 z m 0,0"
       id="path301" />
    <use
       xlink:href="#surface8168"
       transform="translate(193,357)"
       mask="url(#mask0)"
       id="use303" />
    <path
       style="fill:#0073ba;fill-opacity:1;fill-rule:nonzero;stroke:none"
       d="M 114.67188,1280 H 64.5625 V 209.97656 h 50.10938 z m 0,0"
       id="path305" />
    <path
       style="fill:#0073ba;fill-opacity:1;fill-rule:nonzero;stroke:none"
       d="M 114.57031,84.640625 H 64.664062 V 0 h 49.906248 z m 0,0"
       id="path307" />
    <g
       style="fill:#0073ba;fill-opacity:1"
       id="g455">
      <g
         id="use453"
         transform="translate(700.45996,1145.2256)">
        <path
           style="stroke:none"
           d=""
           id="path794" />
      </g>
    </g>
  </g>
</svg>
